<svg width="73" height="62" viewBox="0 0 73 62" fill="none" xmlns="http://www.w3.org/2000/svg">
<g clip-path="url(#clip0_2_48)">
<path d="M73 31C73 48.1208 56.6584 62 36.5 62C16.3416 62 0 48.1208 0 31C0 13.8792 16.3416 0 36.5 0C56.6584 0 73 13.8792 73 31Z" fill="#1D2633"/>
<path d="M63.6137 38.9153C64.8463 38.9153 65.723 39.9327 65.2594 40.9027C60.6508 50.5481 49.5106 57.35 36.4999 57.35C23.4893 57.35 12.3491 50.5481 7.7404 40.9027C7.27688 39.9327 8.15363 38.9153 9.38625 38.9153H63.6137Z" fill="#EDEBDE"/>
<path d="M65.2594 21.0972C65.723 22.0673 64.8463 23.0847 63.6137 23.0847H9.38625C8.15363 23.0847 7.27689 22.0673 7.74041 21.0972C12.3491 11.4519 23.4893 4.64999 36.4999 4.64999C49.5106 4.64999 60.6507 11.4519 65.2594 21.0972Z" fill="#EDEBDE"/>
<path d="M63.7263 28.7912C65.7768 28.7912 66.7663 30.0062 66.7663 31.4136V34.0564H64.6204V31.7276C64.6204 31.0897 64.3462 30.5631 63.5594 30.5631C62.7725 30.5631 62.5103 31.0897 62.5103 31.7276V34.0564H60.3643V31.7276C60.3643 31.0897 60.1021 30.5631 59.3152 30.5631C58.5284 30.5631 58.2542 31.0897 58.2542 31.7276V34.0564H56.1082V31.4136C56.1082 30.0062 57.0978 28.7912 59.1483 28.7912C60.269 28.7912 61.0796 29.1658 61.4492 29.7835C61.8427 29.1658 62.7011 28.7912 63.7263 28.7912Z" fill="#EDEBDE"/>
<path d="M52.2522 32.4363C52.9437 32.4363 53.2417 31.8997 53.2417 31.2618V28.9937H55.3877V31.4845C55.3877 32.9729 54.3624 34.2083 52.2522 34.2083C50.1421 34.2083 49.1169 32.9729 49.1169 31.4845V28.9937H51.2627V31.2618C51.2627 31.8997 51.5608 32.4363 52.2522 32.4363Z" fill="#EDEBDE"/>
<path d="M45.9614 34.2183C44.6143 34.2183 43.744 33.8235 43.2314 33.054L44.7812 32.3148C44.9958 32.6388 45.3177 32.8008 45.8541 32.8008C46.2952 32.8008 46.4979 32.6692 46.4979 32.5072C46.4979 31.8896 43.3506 32.5173 43.3506 30.553C43.3506 29.6012 44.3043 28.8317 45.9257 28.8317C47.3444 28.8317 48.1193 29.4189 48.4651 29.986L46.9152 30.7353C46.784 30.4315 46.3787 30.2493 45.9734 30.2493C45.6634 30.2493 45.4965 30.3606 45.4965 30.5125C45.4965 31.1403 48.6438 30.5631 48.6438 32.4667C48.6438 33.5298 47.416 34.2183 45.9614 34.2183Z" fill="#EDEBDE"/>
<path d="M38.4641 36.3852H36.3181V31.5149C36.3181 29.9658 37.6892 28.8418 39.5967 28.8418C41.4564 28.8418 42.8751 30.0468 42.8751 31.5149C42.8751 33.135 41.6115 34.2083 39.7158 34.2083C39.2747 34.2083 38.8336 34.0969 38.4641 33.9247V36.3852ZM39.5967 32.4971C40.2762 32.4971 40.7292 32.0515 40.7292 31.5251C40.7292 30.9884 40.2762 30.553 39.5967 30.553C38.9171 30.553 38.4641 30.9884 38.4641 31.5251C38.4641 32.0515 38.9171 32.4971 39.5967 32.4971Z" fill="#EDEBDE"/>
<path d="M34.1685 28.4571C33.4651 28.4571 32.8809 27.9609 32.8809 27.3635C32.8809 26.7661 33.4651 26.2699 34.1685 26.2699C34.8719 26.2699 35.4561 26.7661 35.4561 27.3635C35.4561 27.9609 34.8719 28.4571 34.1685 28.4571ZM33.0956 28.9937H35.2415V34.0564H33.0956V28.9937Z" fill="#EDEBDE"/>
<path d="M28.9783 34.2083C27.1186 34.2083 25.6998 32.9932 25.6998 31.5149C25.6998 30.0468 27.1186 28.8317 28.9783 28.8317C30.8381 28.8317 32.2569 30.0468 32.2569 31.5149C32.2569 32.9932 30.8381 34.2083 28.9783 34.2083ZM28.9783 32.4971C29.6579 32.4971 30.1109 32.0515 30.1109 31.5251C30.1109 30.9884 29.6579 30.5429 28.9783 30.5429C28.2988 30.5429 27.8458 30.9884 27.8458 31.5251C27.8458 32.0515 28.2988 32.4971 28.9783 32.4971Z" fill="#EDEBDE"/>
<path d="M21.6479 36.5371C20.1695 36.5371 19.0966 35.9802 18.5482 34.9879L20.3246 34.1779C20.5153 34.5221 20.873 34.8766 21.6121 34.8766C22.387 34.8766 22.8996 34.4614 22.9592 33.7323C22.6732 33.945 22.2201 34.107 21.5406 34.107C19.8835 34.107 18.5482 33.0236 18.5482 31.5048C18.5482 30.0366 19.9669 28.8418 21.8267 28.8418C23.7341 28.8418 25.1052 29.9658 25.1052 31.5149V33.5198C25.1052 35.3423 23.615 36.5371 21.6479 36.5371ZM21.791 32.3958C22.4347 32.3958 22.9235 32.0211 22.9235 31.4643C22.9235 30.9175 22.4347 30.553 21.791 30.553C21.159 30.553 20.6584 30.9175 20.6584 31.4643C20.6584 32.0211 21.159 32.3958 21.791 32.3958Z" fill="#EDEBDE"/>
<path d="M14.9079 34.2083C13.0481 34.2083 11.6294 32.9932 11.6294 31.5149C11.6294 30.0468 13.0481 28.8317 14.9079 28.8317C16.7676 28.8317 18.1864 30.0468 18.1864 31.5149C18.1864 32.9932 16.7676 34.2083 14.9079 34.2083ZM14.9079 32.4971C15.5874 32.4971 16.0405 32.0515 16.0405 31.5251C16.0405 30.9884 15.5874 30.5429 14.9079 30.5429C14.2283 30.5429 13.7753 30.9884 13.7753 31.5251C13.7753 32.0515 14.2283 32.4971 14.9079 32.4971Z" fill="#EDEBDE"/>
<path d="M7.72174 27.2218V32.3351H11.2744V34.0564H7.4237C6.06461 34.0564 5.51622 33.4488 5.51622 32.4869V27.2218H7.72174Z" fill="#EDEBDE"/>
<path d="M31.0249 5.05899C32.8022 4.79023 34.6317 4.64999 36.5 4.64999C38.3682 4.64999 40.1977 4.79023 41.9749 5.05898V23.0847H31.0249V5.05899Z" fill="#AC2828"/>
<path d="M41.9754 38.9153H31.0244C31.0014 42.9592 30.1338 46.968 28.4617 50.7552L26.2056 55.8648C29.4268 56.8268 32.8914 57.35 36.4999 57.35C40.1083 57.35 43.5729 56.8268 46.7941 55.8648L44.538 50.7552C42.8659 46.968 41.9984 42.9592 41.9754 38.9153Z" fill="#AC2828"/>
<path d="M41.975 5.05898C45.936 5.65796 49.637 6.89535 52.925 8.6414V23.0847H41.975V5.05898Z" fill="#306A9F"/>
<path d="M46.7942 55.8648C51.7741 54.3777 56.1725 51.8419 59.6219 48.5696L59.0836 48.2786C55.3026 46.235 52.9916 42.7139 52.9264 38.9153H41.9755C41.9985 42.9592 42.866 46.968 44.5382 50.7552L46.7942 55.8648Z" fill="#306A9F"/>
<path d="M20.0749 8.6414C23.3629 6.89535 27.0638 5.65796 31.0249 5.05898V23.0847H20.0749V8.6414Z" fill="#DEB038"/>
<path d="M20.0735 38.9153H31.0244C31.0015 42.9419 30.1412 46.9337 28.4831 50.7067L26.2056 55.8648C21.2257 54.3777 16.8273 51.8419 13.3778 48.5696L13.9161 48.2786C17.6971 46.235 20.0082 42.7139 20.0735 38.9153Z" fill="#DEB038"/>
</g>
<defs>
<clipPath id="clip0_2_48">
<rect width="73" height="62" fill="white"/>
</clipPath>
</defs>
</svg>
